# xmcd
#
# Track frame offsets: 
#        150
#        12092
#        31975
#        45152
#        72962
#        94850
#        107625
#        128362
#        163175
#        185562
#        205812
#        222387
#
# Disc length: 3198 seconds
#
# Revision: 5
# Processed by: cddbd v1.5.2PL0 Copyright (c) Steve Scherf et al.
# Submitted via: ExactAudioCopy v0.99pb4
#
DISCID=9b0c7c0c
DTITLE=Gary Moore - Still Got The Blues
DYEAR=1990
DGENRE=Blues
TTITLE0=Moving On
TTITLE1=Oh Pretty Woman
TTITLE2=Walking By Myself
TTITLE3=Still Got The Blues
TTITLE4=Texas Strut
TTITLE5=Too Tired
TTITLE6=King Of The Blues
TTITLE7=As The Years Go Passing By
TTITLE8=Midnight Blues
TTITLE9=That Kind Of Woman
TTITLE10=All Your Love
TTITLE11=Stop Messin' Around
EXTD=
EXTT0=
EXTT1=
EXTT2=
EXTT3=
EXTT4=
EXTT5=
EXTT6=
EXTT7=
EXTT8=
EXTT9=
EXTT10=
EXTT11=
PLAYORDER=
